<svg xmlns="http://www.w3.org/2000/svg" viewBox="0 0 800 1000" role="img" aria-labelledby="title description">
  <title id="title">Placeholder for Alexandra's About portrait</title>
  <desc id="description">An abstract editorial portrait placeholder in cream, mustard, pale green, and espresso brown.</desc>
  <rect width="800" height="1000" fill="#dde4bc"/>
  <circle cx="620" cy="180" r="210" fill="#c69b3c"/>
  <path d="M0 690C168 570 317 553 450 638c107 69 223 69 350 1v361H0Z" fill="#f7f2e8"/>
  <path d="M254 425c0-135 78-238 202-238s202 103 202 238v161H254Z" fill="#282018"/>
  <ellipse cx="456" cy="386" rx="128" ry="156" fill="#cfa985"/>
  <path d="M292 378c13-131 78-210 174-210 112 0 185 95 185 233-46-28-83-66-108-114-54 65-136 104-251 117Z" fill="#34271e"/>
  <path d="M191 1000c6-236 109-378 265-378s259 142 265 378Z" fill="#294d38"/>
  <path d="M456 620c65 0 117-45 128-107-27 49-70 74-128 74s-101-25-128-74c11 62 63 107 128 107Z" fill="#b88969"/>
  <rect x="42" y="42" width="716" height="916" rx="320" fill="none" stroke="#fffdf8" stroke-width="4" stroke-dasharray="11 14"/>
  <g fill="#282018">
    <rect x="84" y="840" width="350" height="82" rx="41" fill="#fffdf8"/>
    <text x="259" y="892" text-anchor="middle" font-family="Arial, sans-serif" font-size="26" font-weight="700" letter-spacing="3">PORTRAIT PLACEHOLDER</text>
  </g>
</svg>
